<svg id="Слой_1" data-name="Слой 1" xmlns="http://www.w3.org/2000/svg" viewBox="0 0 1900 1400"><defs><style>.cls-1{fill:#f4f4f4;}.cls-2,.cls-4{fill:none;stroke-miterlimit:10;}.cls-2{stroke:#000;}.cls-3{opacity:0.53;}.cls-4{stroke:#827610;stroke-width:2px;}</style></defs><title>Монтажная область 1</title><rect class="cls-1" x="1.32" y="-1.68" width="1900" height="1400"/><path class="cls-2" d="M705.36,51.43c-73.45-44.5-157.08-57.9-226.55.92-47,39.78-78.09,99-94.72,157.54-5,17.77-9,36.16-9.31,54.69-.11,7,.62,12.56-1.21,19.41-4.05,15.15-14.6,29-23.05,41.89-28.48,43.58-53.47,88-66.09,139-22.75,91.91-8.26,190.64,22,279C380.1,959.12,522.46,1148,666,1321.06c-6.07-.45-8.75-1.37-13.28-4.86C501.75,1139.06,347.43,945.84,265.45,725c-32.88-88.57-54.16-188.23-29.57-281.67,13.21-50.21,40.15-92.85,72.91-132.44,9.28-11.21,21.58-22.9,27.41-36.48,8.86-20.64,7.7-46.47,15-68.38C370.5,147.81,403.87,90,452.23,51.22,526.94-8.62,615.16,7.56,691.75,55.4,695.54,53,698.33,52.26,705.36,51.43Z"/><path class="cls-2" d="M645.32,282c1.16,24.67,13.6,45.76,13.62,70.51,0,21.16-5.29,42.16-11,62.41-14.66,52.45-33,103.62-44.83,156.88-17.53,78.78-26.47,160.06-12,239.77C620.53,973.5,691.91,1113.81,786,1248q-13.65,12-27.72,23.51c-73.7-100.56-141-207.32-184.86-324.57,22.18,91.06,59.36,176.59,102.28,259.64,17.3,33.5,35.9,66.35,52.71,100.1,4.77,9.56,19.12,38.2,13.6,42-8.28,5.74-45.26-33.48-55.63-44.24-49.55-51.38-94.74-107.26-137.54-164.32C484.16,1053.87,425,962.72,377.78,865.67c-46-94.47-82.37-196.45-80.4-302.87,3.37-73.64,22.52-140,59.11-203.6,9.59-16.68,20.52-32.8,29-50.1,10.77-21.93,7.68-41,9.93-64.86q21.87,3.44,43.76,6.81c-.72,19,3.8,38.12-.49,56.77-3.14,13.65-9.49,26.51-15.5,39.08-21.06,44-41.27,86.67-54.77,133.78-21.94,83.23-15.73,174,10.61,255.51a382.35,382.35,0,0,0,40.58,86.68c8.35,13.11,21.62,34.79,37.57,35.85,22.87,1.53,25.61-68.06,27.49-83.53,6.44-53.28,24.52-105.87,41-156.77,9.63-72.58,30.86-140.09,53.7-209.27,6.56-19.89,13.41-40.29,15.62-61.24,2.75-25.94-7.52-49.09-9.21-74.77Z"/><path class="cls-2" d="M817.81,294.07c21.55,3.5,40.54,14.15,58.06,26.87,21.6,15.68,44,31,65,47.27,55.63,43,66.48,104.66,53,171.09q-36.87-4.66-73.75-9.06c8.43-59.37-13.43-102.74-75.36-111.57C752,405.43,719.08,512.36,700.67,582.93c-16.73,64.18-32.26,145.26-6,209.61,11,26.89,29.95,64.07,64.63,59.71,24.74-3.1,41.64-24.27,52.78-44.84,8.78-16.22,12.62-33.7,19.74-50.42,11-25.88,25.47-50.65,37-76.4,23.38,1.07,46.75,2.19,70.12,3.49-14.2,29.45-34.12,59.12-40.55,91.29-5.49,27.47-15,53.9-22.52,80.84-13.24,47.44-18.69,95.06-13.77,144.23,4.39,43.81,15.87,86.21,25.8,129,4.51,19.41,18,58.32,2.75,75-16.6,18.18-55.38-18-67.28-28.63-45-40.39-82.23-90.62-113.08-142.37-39.63-66.47-66.81-138.48-85.07-213.53-10.23-42-14.46-80.32-12.34-123.6,2-40.6,7.26-81.4,16.71-120.7C648.5,497,679.7,414.55,724.76,346,745.93,313.82,777.06,287.45,817.81,294.07Z"/><path class="cls-2" d="M1320.79,629.56c-12.84,35.4-34.11,67.29-58.62,95.64a518.21,518.21,0,0,1-42.51,43.4c-12.89,11.79-20.45,23.69-31.16,37-21.24,26.34-52,42.88-76.66,65.65-38.66,35.77-47.92,76.25-36.21,127.15-8.15,3.46-12.55,5.82-21.83,11.51-12.16-39.73-17-79.46,3.77-117.15,13.54-24.57,34.4-43.67,53.57-63.71,17.84-18.64,28.23-40.62,43.56-60.25,22.68-29.06,49.42-53.81,70.56-84.52,27.77-43.37,53.13-97.29,37.65-149.81-7.74-26.25-26.58-49.3-54.36-54.76-52.91-10.4-100.38,63-125.75,98.3-12.62,36.06-29.2,70.65-47.13,104.34-9.21,17.32-18.87,34.41-28.78,51.35-10.62,18.16-15.77,31.68-21.35,51.76-9.82,35.37-27.31,68.14-35.17,104.14-13.53,61.93,4.65,120.26,31,176.26q-14.76,12.95-29.19,26.28c-31.42-60.45-55.15-124.26-48.9-193.35,3.68-40.74,17.65-79.38,23.95-119.64,6.05-38.7,29-74.37,45-110,13.3-29.54,26.07-59.37,37-89.89,15.51-43.5,29.07-90.58,24.83-137.26-4.44-48.85-39.81-82.93-46.67-130.9-6.16-43.17-2.15-92.55,19.63-131.08,29.79-52.72,82.21-50,131.13-25.32q21.48,6.36,43,12.68c-37.85-18.08-80.75-28-110.63,8.66-20.55,25.25-26.9,60.05-28.12,91.74-1.26,32.94,2.69,71.68,19.62,100.76,12.46,21.39,26.63,38.47,33.78,62.86,9.15-28.87,18.1-89.23,61.66-80.81,15.21,3,28,12.45,39.74,22.11,18.37,15.12,36.93,30.26,55,45.7C1315.29,472.36,1346.45,548,1320.79,629.56Z"/><path class="cls-2" d="M1326.85,204.39c-72.59-24.45-71.39,50.58-61.25,101.3-10.06-3.2-20.54-5.29-30.82-7.69-3.59-27.11-7.46-61.17,8.44-85.6,16.69-25.63,44.07-19.8,68.75-10.22C1318.91,203.37,1322.32,203.08,1326.85,204.39Zm-27.61,186.35c34.24,54.69,83,94.42,100.65,159.23,12.92,47.56,6.31,96.41-17.05,139.64-14.06,26-33,49.09-54.17,69.69a461.46,461.46,0,0,1-44.59,37.9c-14.19,10.68-22.69,24.55-36.51,35.62-26.47,21.19-59.24,33-87.91,50.72-42.74,26.38-62.1,58.44-57.62,109.07-6.17-.47-9.64.08-17.16,2.36-8.72-48.93,1.2-86.06,40-118.41,27.37-22.85,61.66-38.28,85.53-65.23,12-13.57,20.87-25.86,34.86-38.1,10.52-9.2,20.72-18.79,30.44-28.83,21.47-22.19,40.94-46.72,55.56-74,22.12-41.26,31.64-88,22.1-134.2-5.32-25.74-16.06-50.07-29.92-72.31-18.05-29-43.09-51.87-60.22-81.41C1275.24,385,1287.44,387.24,1299.24,390.74Z"/><path class="cls-2" d="M1577.26,728.76c-4.82,34.33-29.33,60.59-57.24,79-30.39,20.05-69.62,37.88-104.61,47.56-43.35,12-92.85,5.42-137.22,5.44-37.38,0-120-5.6-137.09,39.36.49,9.9.72,19.89.5,29.79,9.94-35.35,51.38-45,83.07-50.15,39.36-6.37,79.38-6.54,119-11,31.54-3.52,53.42-13.48,81.35-26.61,34-16,68.18-31.88,94.51-59.66,38.37-43.64,42-93.81,17.18-145.25-10.11-20.94-29.71-58.68-44.26-62.17-5.35-1.29-4.61,19.1-5,27.45-1.17,28-9.23,53.26-20.32,78.79-9.41,36.85-31.86,68.79-59,94.91A371.21,371.21,0,0,1,1358.34,816c-15.07,10.19-26.83,21-40.85,31.91-61.94,48.1-188,36.75-191.32,138.67-4.78,4.32-7.7,5.7-15,6.33-4.21-99.09,94.46-104.73,157.93-151.12,14.34-10.49,23.5-24.21,38-34.56A441,441,0,0,0,1353,770c21.57-20.27,40.86-43.21,54.91-69.36,23.61-44,28.45-93.57,14.07-141.34-19.92-66.19-70.6-107.39-107-163.2,11.58,4.28,16.22,6.43,23.83,10.76,27.13,38.44,62.56,69.57,89.35,108.53-15.14-27-33.9-49-54.06-72.18-6.75-7.77-23-27.33-23-27.33-1.73,1.81,45,55.41,69.67,77.57C1485.89,551.9,1584.07,632.15,1577.26,728.76Z"/><path class="cls-2" d="M1210.65,290.2c-12,1.64,5.35,23.75,8.69,28.6,18.34,26.62,41.05,50.21,63.27,73.53,3.32-5.94,5.18-8.89,8.65-14.69-19.34-24.11-39.94-48.9-53.37-77-2.64-5.52-15.15-32.79,1.94-28.14Q1225.18,281.25,1210.65,290.2Zm151.47,175.9c68,55.56,143.68,101.87,200.78,169.84,28.87,34.36,62.57,85.47,38.92,131.31-12,23.25-35.85,38.64-58.73,49.5-31.1,14.76-71,29.41-105.35,31.94-51.75,3.82-105.32-8.22-156.53-13.33-46-4.59-105.53-14.81-143.13,17.46q1.14,16.2,2.21,32.41c30-37.64,86.21-33.39,130.21-32.3,48.3,1.2,99.75,9.61,147.88,1.54,33.32-5.58,71.91-22.77,101.62-39.08,23.2-12.73,46.24-30,58.62-54,23.85-46.37-1.91-97.83-30-135.74-50.87-68.69-122.39-114.72-185-171.23C1363,459,1362.6,461.36,1362.12,466.1Z"/><path class="cls-2" d="M1777.22,800.29c12.24,68.35-154.56,59.27-188,51.23-68.93-16.59-135.59-45.13-202.29-68.73-72.55-25.68-152.24-60.44-230.33-60.77-5.83,3.74-8.09,6.55-11.66,13.48,52.61-7.59,113.25,16.16,162.72,31.29,58,17.74,115.18,37.92,173,56.07,70.94,22.26,156.51,37.26,226.44.84,84.79-40.13-86.74-171.33-108.54-171.63-1.95,0-1.36-.22,2,5.23,4.48,7.18,12,13.63,17.25,20.43,16.48,21.47,26.34,43.28,26.74,70.46,4.41,70.44-116.25,92.1-166.29,92.74-53.81.68-109.66-17-161.94-27.65-34.2-7-68.68-13.9-103.48-17.14-24.34-2.26-55.82-5.51-77.39,8.71.23,10.55.84,21.09,1.45,31.62,41.54-29.21,102.21-16.35,149.67-10,52.72,7.07,107.37,20.85,160.92,19.28,34.83-1,75.37-14.35,107.27-28.33,22.67-9.94,47-24.36,58.83-47.19,23.54-45.52-14.34-96.51-43.34-129.06-60.18-67.55-137.9-114.06-208.62-169.1a39.17,39.17,0,0,0,1.1,12.15c52,37.23,106.52,70.66,157.29,109.74-37.25-27.89-76.24-52.29-116.73-75.12-10.43-5.88-20.75-12.57-31.68-17.49-4.33-1.94-10.49-4.51-9.59-2.53,11.36,24.92,85.5,51.58,127,75.37,53.69,30.79,107,62.49,158.1,97.41,28.81,19.67,57.29,40.3,83.08,63.86C1749,752.59,1772.22,774.14,1777.22,800.29Z"/><g class="cls-3"><path class="cls-4" d="M642.8,118.62c-74-34.32-149.8-29.33-209.12,29.69C391.79,190,363.5,247.22,349.45,304.24c-5.36,21.74-1.9,45.19-8.15,66.05-4.46,14.87-14.51,28.37-22.83,41.24-27.65,42.8-52,86.41-64.64,136.22-22.46,88.43-10.5,184,17.26,269.81,65.33,202,194.79,380.54,326.17,544.18-6.88-.72-10-1.74-15.31-5.41C443.33,1188.81,302.9,1006.27,229.61,798.82c-30.42-86.13-48.71-182.36-24.41-272.35,13.11-48.55,39-90.24,70.43-128.9,9.33-11.47,20.89-23,27.46-36.39,9.27-18.92,7.37-43.56,13.62-64,16.94-55.49,46.87-110,89.26-150,64-60.47,144.56-63.26,221.67-26C632.09,119.39,635.18,118.91,642.8,118.62Z"/><path class="cls-4" d="M613.93,373.2c2,23.39,13.75,43.1,13.18,67.07-.48,20.35-5.57,40.44-11,60-14.21,50.9-31.93,100.61-43.68,152.22-17.57,77.15-28.13,158.62-14.32,236.92,26.26,148.94,86.34,279.57,169.7,405.5q-14.64,11.28-29.71,22c-66.24-95-125.29-195.53-163.7-305.25,17.66,85.16,48.74,165.77,85.67,244.31,14.44,30.71,30,60.92,43.88,91.9,4.45,10,16.31,37,10.62,41-8.18,5.77-43.15-31.45-53-41.83-46.06-48.36-87.68-101.25-127-155.16C436,1111.56,382.75,1026.76,340.21,936.81,296.59,844.59,263.05,745.23,266.38,642c4.28-71.39,23.12-135.29,58.43-197.24,9.65-16.93,20.72-33.3,29.1-50.92,9.68-20.35,7.79-36.27,8.88-58.4q22.09,3.51,44.2,6.92c.11,17.94,4.1,34.32-.25,51.89-3.33,13.44-9.54,26.12-15.46,38.56-20.42,42.88-40,84.62-53.34,130.41-21.62,80.43-16.21,166.19,7.39,245.56,8.86,29.82,22,59.32,39.08,85.42,8,12.17,20.32,31.22,35.42,32.31,23.65,1.7,27.63-64.47,30.51-79.46,9.82-51,27.81-101,44.57-150,10-70.24,30.81-135.72,52.78-202.77,6.19-18.9,12.61-38.2,15.21-58,3.35-25.59-5.81-46.81-8.64-71.82Z"/><path class="cls-4" d="M786.07,385.78c22.09,3.52,41.68,14.06,60.06,26.53,20.9,14.18,43.42,27.15,63.29,42.69,54,42.22,64.69,102.54,51.87,167.31q-36.69-4.65-73.43-9c7.95-58.78-14.61-100.41-75.47-109-91.58-13-124.13,89.12-142.69,159.34C654,722.9,636.26,805.64,661.47,865.5c11.42,27.1,30.35,62,64.81,58.3,24.49-2.62,42.14-22.22,53.54-42.63,9.23-16.53,14.06-34.76,23.23-51.36,12.8-23.15,24.23-47,35.14-71.07,23.39,1.17,46.77,2.38,70.14,3.78-14.46,29.89-36.86,61.47-43.32,94-4.92,24.8-13.37,48.69-20.71,72.83-13.45,44.19-21.94,88.76-20.7,135.12,1.08,40.14,8.66,79.45,14.72,119,2.88,18.8,11.91,54.68-3.66,69.87-17.57,17.13-52.76-15.88-65-27-40.83-37.35-73.94-84.06-101.26-131.91C632.66,1031.76,608.73,964,591.88,894c-18.78-78-12-160.67,6.91-237.88,18.68-76.08,48.66-158.16,94.49-223.48C714.63,402.24,747.69,379.67,786.07,385.78Z"/><path class="cls-4" d="M1287.11,711.63c-12.45,35.26-33.32,67-57.44,95.29-22.82,26.82-51.12,48.17-70.91,76.71-19,27.47-49.94,44.36-74.74,65.91-35.75,31.08-51.71,65-47,112.62-8.88,2.95-13.64,5-23.65,10.17-7.28-37.86-5.4-72.48,16.28-105.47,14.91-22.69,35.44-40.6,53.7-60.44,17-18.44,26.17-42.13,43.24-59.7a594.68,594.68,0,0,0,67.12-82.3c26.5-42.45,50.52-94.92,35.22-145.85-7.77-25.84-26.59-48.29-54-53.61-52.52-10.22-99.38,60.11-124.89,95.3-12.34,35.71-28.64,70-46.3,103.32-16.84,31.79-41.29,62.81-49.63,97.85-8.43,35.39-26,67.79-35.13,103-14.24,55.09-3.7,107.27,16.72,159.47Q920,1136,904.62,1148.46c-32.76-72.87-43.5-141.37-25.49-219.27,5.17-22.33,11.39-44.39,15-67.05,4.29-26.76,17.05-49,28.55-73.49,30.95-66,64.29-135.23,75.7-207.9,4-25.76,4.84-52.36-1.37-77.86-6.53-26.82-24.68-45.93-34.08-71-16.06-42.85-15.3-95.81-1.51-139.19,19-59.78,64.43-84.51,124-63.11l43.71,13.21c-38.17-12.68-74.91-10.81-98.4,25.58-17.39,26.93-22.18,61.48-22.16,92.93s5,68,22.4,95.09c12.85,20,25.23,37.53,31.76,61,9.91-28.56,20.94-84.1,63-76,14.28,2.74,26.67,11,38.1,19.64,18.92,14.37,38.5,29,56.46,44.47C1281.67,558.32,1311.25,632.22,1287.11,711.63Z"/><path class="cls-4" d="M1280.17,284c-68.52-11.82-56.59,72.37-46.64,114.66-10.26-3.15-20.9-5.26-31.36-7.66-8.31-49.39-9-126.42,61.95-110.23C1271.52,282.37,1275.12,282.3,1280.17,284Zm-11.58,196.85c35.29,52.86,81.57,92.14,97.73,156.32,11.42,45.32,5,92.13-16.53,133.44-29.8,57.14-83,88-124.32,134.5-53,59.57-152.11,56.54-159.46,153-6.89-.88-10.72-.55-19,1.25-1.63-47.1,15.86-77.56,52.69-106,26.9-20.75,60.44-36.43,81.24-64.15,19.9-26.53,46.79-45.83,69.19-70.43,18.56-20.39,35.33-42.75,48.09-67.25,20.9-40.17,29.85-85.64,20.9-130.39-12.31-61.55-55.12-97.82-86.89-148.62C1244.41,475.06,1256.7,477.36,1268.59,480.86Z"/><path class="cls-4" d="M1542.75,810.78c-9,73.57-96,103.32-154.57,126.48-39.22,15.52-90.72,8.2-131.76,8.07-46.23-.16-106.37-4.69-142.77,29.08-.06,11.72-.2,17.4-1.08,27.88,19.09-30.86,63.77-36.71,96.47-40.65,37.17-4.47,74.8-4.73,111.87-10.08,29-4.19,49.52-16.51,75.53-28,33.12-14.66,66.73-33,91.21-60.3,35.92-43.31,38.57-92.23,14.55-142.08-10-20.7-28.48-56.74-43.32-60.79-5.7-1.56-5.36,18.23-5.85,26.41-1.65,27.13-9.48,51.69-20.16,76.51-8.72,35.77-29.72,66.89-55.43,92.72-27.13,27.28-61.46,45-89,71-57.19,54.1-174.12,35.59-195.85,127.14-5.45,3.71-8.71,4.79-16.65,4.89,12.83-94.9,116.55-87.25,171.53-144.48,43.33-45.1,97.4-75.28,127.23-133a183.58,183.58,0,0,0,13.73-135.07c-18.4-65.55-66.63-106.36-104-160.31,11.77,4.31,16.51,6.47,24.34,10.79,27.08,36.48,60.75,66.62,86.39,104.52-14-26-31-48-50.8-69.79-6.41-7.06-22.09-25.37-22.09-25.37-1.53,1.69,44.59,52.65,68.87,74.71C1454.81,638.84,1547.75,716.54,1542.75,810.78Z"/><path class="cls-4" d="M1174.88,373.66c-6.33,8.85,11.43,28.88,16,35.18,19.55,26.7,42.47,50.81,65.45,74.54,3-5.77,4.7-8.64,7.82-14.27-6-7.29-86.48-105.23-61.72-113.49Q1188.62,364.56,1174.88,373.66Zm160.29,181.81c67.13,54,141,100,196,167.58,27.29,33.53,57.89,81.58,36.71,125.79-11.6,24.2-35.15,40-58.62,51.35-30.19,14.58-67.68,28.43-101,32.28-48,5.54-98.66-5.86-146.21-10.84-49-5.13-103.35-13.86-149.18,8.24.27,10.17.54,20.35.68,30.53,39.73-28.45,93-24,139.78-22.33,44.33,1.58,94.81,10,138.67-1,32.68-8.25,69.35-23.6,98.69-40.83,21.85-12.83,43.07-30,54.26-53.38,21.82-45.54-3-95.5-30.12-132.62C1465.94,643.37,1397.39,598.1,1336.18,544,1335.8,548.52,1335.47,550.82,1335.17,555.47Z"/><path class="cls-4" d="M1740.11,881.86c14,66.43-144.88,61.62-177.45,55.15-62.34-12.37-123-38.86-182.6-60.13-78-27.8-158.29-60.25-241-69.91-6.39,3.37-8.92,6-13.07,12.42,56.44.87,113.83,21.42,167.11,38.13,56.34,17.67,112,37.37,168.6,54.33,36.91,11.06,69.23,18.22,107.75,15.92,34.44-2,73.91-4.75,104.51-22.47,78.42-41.14-73.65-151.85-108.75-168.43-.78-.37-1.75-.66-2.62-1,19.92,32.9,45.58,52.48,46.84,94.51,5.87,70.81-108.59,89.31-158,94.46-49.67,5.18-106.17-13.9-154.2-23.75-58-11.89-125.68-31.56-184.64-16.48-.28,9.93-.25,19.91,0,29.84,49.13-18.87,104.67-8.1,155.41-1.08,48.92,6.77,100.53,19.84,150.22,16.41,33.77-2.32,71.93-15.1,102.79-28.89,23.28-10.39,47.28-25.21,58.66-49,21-43.91-13.42-91.83-40.92-123.64-58.1-67.19-134-113.34-203.73-166.9a40.17,40.17,0,0,0,1.46,11.93c50.63,35.89,103.2,68.49,152.25,106.65A951,951,0,0,0,1376.45,607c-10.29-5.73-20.86-13.2-31.92-17.36-4-1.49-9.16-3.93-8.13-1.91,13,25.4,83.43,50.38,124,73.82,51,29.45,101.61,59.76,150.25,93,28.4,19.41,56.45,39.76,81.94,62.93C1711.46,834.63,1734.36,855.88,1740.11,881.86Z"/></g></svg>