<svg id="Слой_1" data-name="Слой 1" xmlns="http://www.w3.org/2000/svg" viewBox="0 0 1440 900"><defs><style>.cls-1{fill:#f4f4f4;}.cls-2,.cls-4{fill:none;stroke-miterlimit:10;}.cls-2{stroke:#000;}.cls-3{opacity:0.53;}.cls-4{stroke:#827610;stroke-width:2px;}</style></defs><title>Монтажная область 1</title><rect class="cls-1" width="1440" height="900"/><path class="cls-2" d="M461-161.89c-73.45-44.5-157.08-57.9-226.55.92-47,39.78-78.09,99-94.71,157.54-5.05,17.77-9,36.16-9.32,54.69-.11,7,.62,12.56-1.21,19.41-4,15.16-14.6,29-23,41.89-28.48,43.58-53.47,88-66.09,139-22.75,91.91-8.26,190.64,22,279,73.67,215.22,216,404.06,359.59,577.16-6.07-.45-8.75-1.36-13.28-4.86-151-177.14-305.31-370.36-387.29-591.22C-11.75,423.09-33,323.43-8.44,230c13.21-50.2,40.15-92.84,72.91-132.44,9.28-11.2,21.58-22.9,27.41-36.48,8.86-20.64,7.7-46.47,15-68.38,19.32-58.2,52.7-116,101.05-154.79,74.71-59.84,162.93-43.66,239.52,4.18C451.22-160.3,454-161.06,461-161.89Z"/><path class="cls-2" d="M401,68.71c1.17,24.67,13.6,45.76,13.62,70.51,0,21.16-5.29,42.16-10.95,62.41-14.66,52.45-33,103.63-44.83,156.88-17.53,78.78-26.47,160.06-12,239.77,29.38,161.91,100.76,302.21,194.86,436.38q-13.65,12-27.72,23.51C440.27,957.61,373,850.85,329.11,733.6c22.18,91.06,59.36,176.59,102.28,259.64,17.31,33.5,35.9,66.35,52.71,100.1,4.77,9.56,19.12,38.2,13.6,42-8.28,5.74-45.26-33.48-55.63-44.24-49.55-51.38-94.74-107.26-137.54-164.32-64.69-86.26-123.84-177.4-171.07-274.46-46-94.46-82.37-196.45-80.4-302.87,3.37-73.64,22.53-140,59.11-203.6,9.59-16.68,20.53-32.8,29-50.1,10.77-21.93,7.68-41,9.93-64.86q21.87,3.44,43.76,6.81c-.72,19,3.8,38.12-.49,56.77-3.14,13.65-9.49,26.51-15.5,39.08-21.06,44-41.27,86.68-54.77,133.78-21.94,83.23-15.72,174,10.61,255.51a382,382,0,0,0,40.59,86.68c8.34,13.11,21.61,34.79,37.56,35.85,22.87,1.53,25.62-68.06,27.49-83.53,6.44-53.28,24.53-105.87,41-156.77C291,332.52,312.19,265,335,195.83c6.56-19.89,13.41-40.29,15.62-61.24,2.75-25.94-7.52-49.09-9.21-74.76Z"/><path class="cls-2" d="M573.49,80.75C595,84.25,614,94.9,631.55,107.62c21.6,15.68,44,31,65,47.27,55.63,43,66.48,104.66,53,171.09q-36.86-4.67-73.75-9.06c8.43-59.37-13.43-102.74-75.36-111.57C507.64,192.11,474.76,299,456.35,369.62c-16.73,64.17-32.26,145.25-6,209.6,11,26.89,29.95,64.07,64.63,59.72,24.74-3.11,41.64-24.28,52.78-44.85,8.78-16.22,12.62-33.69,19.74-50.42,11-25.88,25.47-50.65,37-76.4,23.38,1.07,46.75,2.19,70.12,3.49-14.2,29.45-34.12,59.12-40.55,91.29-5.49,27.47-15,53.91-22.52,80.84-13.24,47.44-18.69,95.07-13.77,144.23,4.39,43.81,15.87,86.21,25.8,129,4.51,19.41,18,58.32,2.75,75-16.6,18.18-55.38-17.94-67.28-28.62-45-40.4-82.23-90.63-113.08-142.38-39.63-66.47-66.81-138.48-85.07-213.53-10.23-42-14.46-80.32-12.34-123.6,2-40.6,7.26-81.4,16.71-120.7,18.91-78.58,50.11-161,95.17-229.54C501.62,100.51,532.74,74.13,573.49,80.75Z"/><path class="cls-2" d="M1076.47,416.24c-12.84,35.4-34.11,67.29-58.62,95.65a519.61,519.61,0,0,1-42.51,43.39c-12.89,11.79-20.45,23.69-31.16,37-21.24,26.34-52,42.88-76.65,65.65C828.86,693.66,819.6,734.15,831.31,785c-8.15,3.46-12.55,5.82-21.83,11.51-12.16-39.73-17-79.46,3.77-117.15,13.54-24.57,34.4-43.67,53.57-63.71,17.84-18.64,28.23-40.62,43.56-60.25,22.68-29.06,49.42-53.81,70.57-84.51,27.76-43.37,53.12-97.29,37.64-149.81-7.74-26.26-26.58-49.31-54.36-54.77-52.91-10.4-100.38,63-125.75,98.3-12.62,36.06-29.2,70.65-47.12,104.34-9.22,17.33-18.88,34.42-28.78,51.35C752,538.5,746.8,552,741.22,572.1c-9.82,35.37-27.31,68.14-35.17,104.14-13.53,61.93,4.65,120.26,31,176.26q-14.76,12.94-29.19,26.28c-31.42-60.45-55.15-124.26-48.9-193.35,3.69-40.74,17.66-79.38,24-119.64,6-38.69,28.95-74.36,45-110,13.3-29.54,26.07-59.37,36.95-89.89,15.51-43.5,29.07-90.58,24.83-137.26-4.44-48.85-39.81-82.93-46.66-130.9-6.17-43.17-2.16-92.55,19.62-131.08,29.79-52.72,82.21-50,131.13-25.32Q915.21-52.32,936.68-46c-37.84-18.07-80.75-28-110.63,8.66-20.55,25.25-26.9,60.05-28.12,91.74-1.26,32.94,2.69,71.69,19.62,100.76C830,176.55,844.18,193.63,851.33,218c9.15-28.87,18.1-89.23,61.67-80.8,15.2,2.94,28,12.44,39.73,22.1,18.37,15.12,36.93,30.26,55,45.7C1071,259,1102.13,334.67,1076.47,416.24Z"/><path class="cls-2" d="M1082.53-8.93c-72.59-24.45-71.39,50.58-61.25,101.3-10.06-3.2-20.54-5.29-30.81-7.69C986.87,57.57,983,23.51,998.9-.91c16.69-25.64,44.08-19.81,68.75-10.23C1074.59-9.95,1078-10.24,1082.53-8.93Zm-27.61,186.36c34.24,54.68,83,94.41,100.65,159.22,12.92,47.56,6.31,96.41-17,139.64-14.07,26-33,49.09-54.18,69.69a460.26,460.26,0,0,1-44.59,37.9c-14.19,10.68-22.69,24.55-36.51,35.62-26.47,21.19-59.24,33-87.91,50.72-42.74,26.38-62.1,58.44-57.62,109.07-6.17-.47-9.64.08-17.16,2.36-8.72-48.93,1.2-86.06,40-118.41C907.9,640.39,942.19,625,966.07,598c12-13.57,20.86-25.86,34.85-38.09,10.52-9.21,20.72-18.8,30.44-28.84,21.47-22.19,40.94-46.72,55.57-74,22.11-41.26,31.63-88,22.09-134.2-5.32-25.74-16.06-50.07-29.92-72.31-18-29-43.09-51.87-60.22-81.4C1030.92,171.66,1043.12,173.92,1054.92,177.43Z"/><path class="cls-2" d="M1333,515.44c-4.83,34.33-29.34,60.59-57.25,79-30.39,20-69.62,37.88-104.61,47.56-43.34,12-92.85,5.42-137.22,5.44-37.38,0-120-5.6-137.09,39.36.49,9.9.72,19.89.5,29.79,10-35.35,51.39-45,83.07-50.15,39.36-6.37,79.39-6.54,119-11,31.54-3.52,53.42-13.48,81.35-26.61,34-16,68.18-31.88,94.52-59.66,38.36-43.64,42-93.81,17.17-145.25-10.11-20.94-29.7-58.68-44.26-62.17-5.35-1.28-4.61,19.1-5,27.45-1.17,28-9.23,53.26-20.32,78.8-9.41,36.84-31.86,68.78-59,94.9A371.21,371.21,0,0,1,1114,602.72c-15.06,10.19-26.83,21-40.85,31.91-61.93,48.1-188,36.75-191.31,138.67-4.79,4.32-7.71,5.7-15,6.33-4.21-99.09,94.46-104.72,157.93-151.12,14.35-10.49,23.5-24.21,38-34.56a441,441,0,0,0,45.86-37.3c21.57-20.27,40.86-43.21,54.91-69.36,23.61-44,28.45-93.57,14.07-141.34-19.92-66.19-70.6-107.39-107-163.2,11.58,4.28,16.22,6.43,23.83,10.76,27.13,38.44,62.56,69.57,89.35,108.53-15.14-27-33.9-49-54.06-72.18-6.75-7.76-23-27.32-23-27.32-1.73,1.8,45,55.4,69.67,77.56C1241.57,338.58,1339.76,418.83,1333,515.44Z"/><path class="cls-2" d="M966.33,76.88c-12,1.64,5.35,23.75,8.69,28.61,18.34,26.61,41.05,50.2,63.27,73.53,3.32-6,5.19-8.9,8.65-14.7-19.34-24.11-39.94-48.9-53.37-77-2.64-5.52-15.15-32.79,1.94-28.14Q980.86,67.93,966.33,76.88Zm151.47,175.9c68,55.56,143.68,101.87,200.78,169.84,28.87,34.36,62.57,85.47,38.93,131.31-12,23.25-35.86,38.64-58.74,49.5-31.1,14.76-71,29.41-105.35,31.94-51.75,3.82-105.32-8.22-156.53-13.33-46-4.59-105.53-14.81-143.13,17.46q1.14,16.2,2.21,32.41c30-37.64,86.21-33.39,130.21-32.29,48.3,1.2,99.75,9.6,147.88,1.54,33.32-5.59,71.91-22.78,101.62-39.09,23.2-12.73,46.24-30,58.62-54.05,23.85-46.37-1.91-97.83-30-135.74-50.87-68.69-122.39-114.71-185-171.23C1118.72,245.69,1118.28,248,1117.8,252.78Z"/><path class="cls-2" d="M1532.9,587c12.24,68.35-154.56,59.27-188,51.23-68.93-16.59-135.59-45.13-202.29-68.73C1070.06,543.8,990.37,509,912.29,508.7c-5.84,3.74-8.09,6.55-11.67,13.49,52.61-7.6,113.25,16.15,162.72,31.28,58,17.74,115.18,37.92,173,56.07,70.94,22.27,156.51,37.26,226.44.84,84.79-40.13-86.74-171.32-108.54-171.63-2,0-1.36-.22,2,5.23,4.48,7.18,12,13.64,17.25,20.43,16.48,21.47,26.34,43.28,26.74,70.47,4.41,70.43-116.25,92.1-166.29,92.73-53.81.68-109.66-17-161.94-27.65-34.2-7-68.68-13.9-103.48-17.14-24.34-2.26-55.82-5.51-77.39,8.71.23,10.56.84,21.09,1.45,31.62,41.54-29.21,102.21-16.35,149.67-10,52.72,7.07,107.37,20.86,160.92,19.28,34.83-1,75.37-14.35,107.27-28.33,22.67-9.94,47-24.36,58.83-47.19,23.54-45.52-14.34-96.51-43.34-129.06-60.18-67.54-137.9-114.06-208.62-169.1a39.17,39.17,0,0,0,1.1,12.15c52,37.23,106.52,70.66,157.29,109.74-37.25-27.89-76.24-52.29-116.73-75.12-10.43-5.88-20.75-12.57-31.68-17.49-4.33-1.94-10.49-4.51-9.59-2.53,11.36,24.92,85.5,51.58,127,75.37,53.69,30.79,107,62.49,158.1,97.41,28.81,19.67,57.29,40.3,83.08,63.86C1504.68,539.27,1527.9,560.82,1532.9,587Z"/><g class="cls-3"><path class="cls-4" d="M398.48-94.7C324.43-129,248.68-124,189.36-65c-41.89,41.67-70.18,98.9-84.23,155.93-5.36,21.73-1.9,45.19-8.15,66-4.46,14.88-14.51,28.37-22.83,41.25C46.5,241,22.16,284.62,9.51,334.43c-22.46,88.43-10.5,184,17.26,269.81,65.33,202,194.79,380.54,326.17,544.18-6.88-.72-10-1.74-15.31-5.41C199,975.49,58.58,793-14.71,585.5c-30.42-86.13-48.71-182.36-24.41-272.35,13.11-48.55,39-90.24,70.43-128.9,9.33-11.47,20.89-23,27.46-36.39,9.27-18.92,7.37-43.56,13.62-64,16.94-55.49,46.87-110,89.26-150,64-60.47,144.56-63.26,221.67-26C387.77-93.93,390.86-94.41,398.48-94.7Z"/><path class="cls-4" d="M369.61,159.88c2,23.4,13.75,43.1,13.18,67.07-.48,20.35-5.57,40.44-11,59.95-14.22,50.9-31.93,100.61-43.69,152.22C310.52,516.27,300,597.74,313.77,676,340,825,400.11,955.61,483.47,1081.54q-14.64,11.28-29.71,22c-66.24-95-125.29-195.52-163.7-305.25,17.66,85.17,48.74,165.77,85.67,244.31,14.44,30.71,30,60.92,43.88,91.9,4.45,10,16.31,37,10.62,41-8.18,5.77-43.15-31.45-53-41.83-46.06-48.36-87.68-101.24-127-155.16C191.64,898.24,138.43,813.44,95.89,723.49,52.27,631.27,18.73,531.91,22.06,428.63c4.28-71.39,23.12-135.29,58.43-197.24,9.65-16.93,20.72-33.3,29.1-50.92,9.68-20.35,7.79-36.27,8.88-58.4q22.1,3.51,44.2,6.92c.11,17.94,4.11,34.33-.25,51.89-3.33,13.44-9.54,26.12-15.46,38.56-20.42,42.88-40,84.62-53.34,130.41C72,430.28,77.41,516.05,101,595.41c8.86,29.82,22,59.32,39.08,85.42,8,12.17,20.32,31.22,35.42,32.31,23.65,1.7,27.63-64.47,30.52-79.46,9.81-50.94,27.8-101,44.57-150,10-70.24,30.8-135.71,52.77-202.77,6.19-18.9,12.61-38.2,15.21-58,3.36-25.59-5.81-46.81-8.64-71.82Z"/><path class="cls-4" d="M541.75,172.46c22.1,3.52,41.68,14.06,60.06,26.53,20.9,14.18,43.42,27.15,63.29,42.69C719.1,283.9,729.79,344.22,717,409q-36.69-4.65-73.42-9.05c7.94-58.78-14.62-100.41-75.48-109C476.49,278,443.94,380,425.38,450.26c-15.67,59.33-33.44,142.06-8.23,201.93,11.42,27.09,30.35,62,64.81,58.3,24.49-2.63,42.14-22.23,53.54-42.64,9.23-16.53,14.06-34.76,23.23-51.36,12.8-23.15,24.23-47,35.14-71.07,23.39,1.17,46.77,2.38,70.14,3.78-14.46,29.89-36.86,61.47-43.32,94C615.77,668,607.32,691.89,600,716c-13.45,44.19-21.94,88.76-20.7,135.12,1.08,40.15,8.66,79.45,14.73,119,2.88,18.8,11.91,54.68-3.67,69.87-17.57,17.13-52.76-15.87-65-27C484.55,975.66,451.44,929,424.12,881.1c-35.78-62.66-59.71-130.38-76.56-200.38-18.78-78-12-160.67,6.91-237.87,18.68-76.09,48.66-158.17,94.49-223.49C470.31,188.92,503.37,166.35,541.75,172.46Z"/><path class="cls-4" d="M1042.79,498.31c-12.45,35.26-33.32,67-57.44,95.29-22.82,26.82-51.12,48.17-70.91,76.71-19.05,27.47-49.94,44.36-74.74,65.92-35.75,31.07-51.7,65-47.05,112.61-8.88,2.95-13.63,5-23.65,10.17-7.28-37.86-5.4-72.48,16.28-105.47,14.91-22.69,35.44-40.6,53.7-60.44,17-18.44,26.17-42.13,43.24-59.7a595.18,595.18,0,0,0,67.12-82.29c26.5-42.46,50.52-94.92,35.22-145.86C976.79,379.41,958,357,930.61,351.64c-52.52-10.22-99.38,60.11-124.89,95.3-12.34,35.71-28.64,70-46.3,103.32-16.84,31.79-41.29,62.81-49.63,97.85-8.43,35.4-26,67.79-35.13,103-14.24,55.09-3.7,107.27,16.72,159.48q-15.71,12-31.07,24.55c-32.77-72.87-43.51-141.37-25.49-219.27,5.16-22.33,11.39-44.39,15-67,4.29-26.76,17-49,28.55-73.49,31-66,64.29-135.23,75.7-207.89,4-25.76,4.84-52.37-1.37-77.87-6.53-26.82-24.68-45.93-34.08-71-16.06-42.85-15.3-95.81-1.51-139.19,19-59.78,64.43-84.51,124-63.11Q863,22.85,884.84,29.45C846.68,16.77,809.93,18.64,786.44,55,769.05,82,764.26,116.51,764.28,148s5,68,22.4,95.09c12.85,20,25.23,37.53,31.76,60.95,9.91-28.56,20.94-84.09,63-76,14.28,2.74,26.67,11,38.11,19.64,18.91,14.37,38.49,29,56.45,44.47C1037.36,345,1066.93,418.9,1042.79,498.31Z"/><path class="cls-4" d="M1035.86,70.69c-68.53-11.82-56.6,72.37-46.65,114.67-10.26-3.16-20.9-5.27-31.36-7.67-8.31-49.38-9-126.42,61.95-110.23C1027.2,69.05,1030.8,69,1035.86,70.69Zm-11.59,196.85c35.29,52.86,81.58,92.14,97.73,156.32,11.42,45.32,5,92.13-16.53,133.45-29.8,57.13-83,88-124.32,134.49-53,59.58-152.11,56.54-159.46,153-6.89-.88-10.72-.55-19,1.25-1.63-47.1,15.86-77.55,52.69-106,26.9-20.75,60.44-36.43,81.24-64.15,19.9-26.53,46.79-45.83,69.19-70.43,18.56-20.39,35.33-42.75,48.09-67.25,20.9-40.17,29.85-85.64,20.9-130.39C1062.54,346.29,1019.73,310,988,259.22,1000.09,261.74,1012.38,264,1024.27,267.54Z"/><path class="cls-4" d="M1298.43,597.46c-9,73.57-96,103.32-154.57,126.48-39.22,15.52-90.72,8.2-131.76,8.07-46.22-.16-106.37-4.69-142.77,29.08-.06,11.72-.2,17.4-1.08,27.89,19.09-30.87,63.77-36.72,96.47-40.66,37.18-4.47,74.8-4.73,111.87-10.08,29-4.18,49.52-16.51,75.54-28,33.11-14.66,66.72-33,91.2-60.3,35.92-43.31,38.57-92.23,14.55-142.08-10-20.7-28.47-56.74-43.32-60.79-5.7-1.56-5.36,18.23-5.85,26.42-1.64,27.12-9.48,51.68-20.16,76.51-8.72,35.76-29.72,66.88-55.42,92.71-27.14,27.28-61.47,45-89,71C987,767.8,870,749.29,848.31,840.85c-5.45,3.7-8.71,4.79-16.65,4.88,12.83-94.9,116.55-87.25,171.53-144.48,43.33-45.1,97.4-75.28,127.24-133a183.62,183.62,0,0,0,13.72-135.07c-18.4-65.55-66.63-106.36-103.94-160.3,11.76,4.3,16.5,6.46,24.33,10.78,27.08,36.48,60.75,66.62,86.39,104.52-14-26-31-48-50.8-69.79C1093.72,311.35,1078,293,1078,293c-1.53,1.69,44.59,52.65,68.87,74.71C1210.49,425.52,1303.43,503.22,1298.43,597.46Z"/><path class="cls-4" d="M930.56,160.34c-6.33,8.85,11.43,28.88,16.05,35.18,19.55,26.7,42.47,50.81,65.45,74.54,3-5.77,4.71-8.63,7.82-14.27-6-7.29-86.48-105.23-61.72-113.49Q944.3,151.24,930.56,160.34Zm160.29,181.81c67.13,54,141,100,196,167.58,27.29,33.53,57.89,81.58,36.71,125.79-11.59,24.2-35.15,40-58.62,51.35-30.19,14.59-67.68,28.43-101,32.28-48,5.54-98.65-5.85-146.21-10.84-49-5.13-103.35-13.86-149.18,8.24.27,10.18.54,20.35.69,30.53,39.72-28.45,93-24,139.78-22.33,44.32,1.58,94.8,10,138.66-1,32.68-8.25,69.35-23.6,98.69-40.82,21.85-12.84,43.07-30,54.26-53.38,21.82-45.54-3-95.5-30.11-132.63-48.92-66.84-117.47-112.11-178.68-166.25C1091.48,335.2,1091.15,337.5,1090.85,342.15Z"/><path class="cls-4" d="M1495.79,668.54c14,66.43-144.88,61.62-177.45,55.16-62.34-12.37-122.95-38.86-182.6-60.14-78-27.8-158.29-60.24-241-69.91-6.39,3.38-8.92,6-13.07,12.42,56.44.87,113.83,21.42,167.11,38.13,56.34,17.67,112,37.37,168.61,54.33,36.9,11.06,69.22,18.22,107.74,15.92,34.44-2.05,73.92-4.75,104.51-22.47,78.42-41.14-73.65-151.85-108.74-168.43-.79-.37-1.76-.66-2.63-1,19.93,32.9,45.58,52.48,46.84,94.52,5.87,70.8-108.59,89.3-158,94.45-49.68,5.18-106.18-13.9-154.21-23.75-58-11.89-125.68-31.56-184.64-16.48-.28,9.94-.24,19.91,0,29.84,49.13-18.87,104.67-8.1,155.42-1.08,48.91,6.77,100.52,19.84,150.21,16.41,33.78-2.32,71.93-15.1,102.8-28.88,23.27-10.4,47.27-25.22,58.65-49,21-43.91-13.42-91.83-40.92-123.64-58.1-67.19-134-113.34-203.73-166.9a40.17,40.17,0,0,0,1.46,11.93c50.63,35.89,103.2,68.49,152.25,106.65a954.21,954.21,0,0,0-112.23-72.93c-10.29-5.72-20.86-13.2-31.93-17.36-4-1.49-9.16-3.93-8.12-1.91,13,25.4,83.42,50.38,124,73.82,51,29.45,101.61,59.76,150.25,93,28.4,19.42,56.45,39.76,81.94,62.93C1467.14,621.32,1490,642.56,1495.79,668.54Z"/></g></svg>